<mxfile host="Electron" agent="Mozilla/5.0 (X11; Linux x86_64) AppleWebKit/537.36 (KHTML, like Gecko) draw.io/24.7.17 Chrome/128.0.6613.36 Electron/32.0.1 Safari/537.36" version="24.7.17">
  <diagram name="Page-1" id="rTkgLekItd1kvrhHSdm6">
    <mxGraphModel dx="1114" dy="773" grid="1" gridSize="10" guides="1" tooltips="1" connect="1" arrows="1" fold="1" page="1" pageScale="1" pageWidth="850" pageHeight="1100" math="0" shadow="0">
      <root>
        <mxCell id="0" />
        <mxCell id="1" parent="0" />
        <mxCell id="CKjxsM17kLCs6-VL6U6W-5" value="" style="rounded=0;whiteSpace=wrap;html=1;fillColor=#ffe6cc;strokeColor=#d79b00;" parent="1" vertex="1">
          <mxGeometry x="320" y="430" width="100" height="50" as="geometry" />
        </mxCell>
        <mxCell id="CKjxsM17kLCs6-VL6U6W-6" value="server" style="text;html=1;align=center;verticalAlign=middle;whiteSpace=wrap;rounded=0;" parent="1" vertex="1">
          <mxGeometry x="340" y="440" width="60" height="30" as="geometry" />
        </mxCell>
        <mxCell id="CKjxsM17kLCs6-VL6U6W-14" style="edgeStyle=orthogonalEdgeStyle;rounded=0;orthogonalLoop=1;jettySize=auto;html=1;exitX=1;exitY=0.5;exitDx=0;exitDy=0;entryX=0;entryY=0.25;entryDx=0;entryDy=0;" parent="1" source="CKjxsM17kLCs6-VL6U6W-8" target="CKjxsM17kLCs6-VL6U6W-5" edge="1">
          <mxGeometry relative="1" as="geometry">
            <mxPoint x="310" y="440" as="targetPoint" />
          </mxGeometry>
        </mxCell>
        <mxCell id="CKjxsM17kLCs6-VL6U6W-8" value="" style="rounded=0;whiteSpace=wrap;html=1;fillColor=#ffe6cc;strokeColor=#d79b00;" parent="1" vertex="1">
          <mxGeometry x="100" y="400" width="70" height="30" as="geometry" />
        </mxCell>
        <mxCell id="CKjxsM17kLCs6-VL6U6W-9" value="client" style="text;html=1;align=center;verticalAlign=middle;whiteSpace=wrap;rounded=0;" parent="1" vertex="1">
          <mxGeometry x="120" y="410" width="30" height="10" as="geometry" />
        </mxCell>
        <mxCell id="CKjxsM17kLCs6-VL6U6W-10" value="" style="rounded=0;whiteSpace=wrap;html=1;fillColor=#ffe6cc;strokeColor=#d79b00;" parent="1" vertex="1">
          <mxGeometry x="100" y="440" width="70" height="30" as="geometry" />
        </mxCell>
        <mxCell id="CKjxsM17kLCs6-VL6U6W-11" value="client" style="text;html=1;align=center;verticalAlign=middle;whiteSpace=wrap;rounded=0;" parent="1" vertex="1">
          <mxGeometry x="120" y="450" width="30" height="10" as="geometry" />
        </mxCell>
        <mxCell id="CKjxsM17kLCs6-VL6U6W-16" style="edgeStyle=orthogonalEdgeStyle;rounded=0;orthogonalLoop=1;jettySize=auto;html=1;exitX=1;exitY=0.5;exitDx=0;exitDy=0;entryX=0;entryY=0.75;entryDx=0;entryDy=0;" parent="1" source="CKjxsM17kLCs6-VL6U6W-12" target="CKjxsM17kLCs6-VL6U6W-5" edge="1">
          <mxGeometry relative="1" as="geometry" />
        </mxCell>
        <mxCell id="CKjxsM17kLCs6-VL6U6W-12" value="" style="rounded=0;whiteSpace=wrap;html=1;fillColor=#ffe6cc;strokeColor=#d79b00;" parent="1" vertex="1">
          <mxGeometry x="100" y="480" width="70" height="30" as="geometry" />
        </mxCell>
        <mxCell id="CKjxsM17kLCs6-VL6U6W-13" value="client" style="text;html=1;align=center;verticalAlign=middle;whiteSpace=wrap;rounded=0;" parent="1" vertex="1">
          <mxGeometry x="120" y="490" width="30" height="10" as="geometry" />
        </mxCell>
        <mxCell id="CKjxsM17kLCs6-VL6U6W-15" style="edgeStyle=orthogonalEdgeStyle;rounded=0;orthogonalLoop=1;jettySize=auto;html=1;exitX=1;exitY=0.5;exitDx=0;exitDy=0;" parent="1" source="CKjxsM17kLCs6-VL6U6W-10" edge="1">
          <mxGeometry relative="1" as="geometry">
            <mxPoint x="320" y="455" as="targetPoint" />
          </mxGeometry>
        </mxCell>
        <mxCell id="CKjxsM17kLCs6-VL6U6W-19" value="&lt;b&gt;&lt;font style=&quot;font-size: 18px;&quot;&gt;SubserviÃ§o de Descoberta&lt;/font&gt;&lt;/b&gt;" style="text;html=1;align=center;verticalAlign=middle;whiteSpace=wrap;rounded=0;" parent="1" vertex="1">
          <mxGeometry x="140" y="550" width="230" height="30" as="geometry" />
        </mxCell>
        <mxCell id="CKjxsM17kLCs6-VL6U6W-27" style="edgeStyle=orthogonalEdgeStyle;rounded=0;orthogonalLoop=1;jettySize=auto;html=1;exitX=0.5;exitY=0;exitDx=0;exitDy=0;entryX=0.5;entryY=0;entryDx=0;entryDy=0;" parent="1" source="CKjxsM17kLCs6-VL6U6W-20" target="CKjxsM17kLCs6-VL6U6W-22" edge="1">
          <mxGeometry relative="1" as="geometry" />
        </mxCell>
        <mxCell id="CKjxsM17kLCs6-VL6U6W-20" value="" style="rounded=0;whiteSpace=wrap;html=1;fillColor=#ffe6cc;strokeColor=#d79b00;" parent="1" vertex="1">
          <mxGeometry x="90" y="670" width="70" height="30" as="geometry" />
        </mxCell>
        <mxCell id="CKjxsM17kLCs6-VL6U6W-21" value="client" style="text;html=1;align=center;verticalAlign=middle;whiteSpace=wrap;rounded=0;" parent="1" vertex="1">
          <mxGeometry x="110" y="680" width="30" height="10" as="geometry" />
        </mxCell>
        <mxCell id="CKjxsM17kLCs6-VL6U6W-26" style="edgeStyle=orthogonalEdgeStyle;rounded=0;orthogonalLoop=1;jettySize=auto;html=1;exitX=0.5;exitY=1;exitDx=0;exitDy=0;entryX=0.5;entryY=1;entryDx=0;entryDy=0;" parent="1" source="CKjxsM17kLCs6-VL6U6W-22" target="CKjxsM17kLCs6-VL6U6W-20" edge="1">
          <mxGeometry relative="1" as="geometry" />
        </mxCell>
        <mxCell id="CKjxsM17kLCs6-VL6U6W-22" value="" style="rounded=0;whiteSpace=wrap;html=1;fillColor=#ffe6cc;strokeColor=#d79b00;" parent="1" vertex="1">
          <mxGeometry x="280" y="660" width="100" height="50" as="geometry" />
        </mxCell>
        <mxCell id="CKjxsM17kLCs6-VL6U6W-23" value="server" style="text;html=1;align=center;verticalAlign=middle;whiteSpace=wrap;rounded=0;" parent="1" vertex="1">
          <mxGeometry x="300" y="670" width="60" height="30" as="geometry" />
        </mxCell>
        <mxCell id="CKjxsM17kLCs6-VL6U6W-25" value="client envia mensagens de descoberta na rede" style="text;html=1;align=center;verticalAlign=middle;whiteSpace=wrap;rounded=0;" parent="1" vertex="1">
          <mxGeometry x="140" y="620" width="160" height="10" as="geometry" />
        </mxCell>
        <mxCell id="CKjxsM17kLCs6-VL6U6W-29" value="server recebe e responde mensagens em broadcast do tipo DESCOBERTA" style="text;html=1;align=center;verticalAlign=middle;whiteSpace=wrap;rounded=0;" parent="1" vertex="1">
          <mxGeometry x="105" y="740" width="230" height="30" as="geometry" />
        </mxCell>
      </root>
    </mxGraphModel>
  </diagram>
</mxfile>
